<?xml version="1.0" encoding="UTF-8"?>
<svg version="1.1" xmlns="http://www.w3.org/2000/svg" width="2000" height="2000">
<path d="M0 0 C98.58911373 -2.57651895 195.87826834 28.86408156 313.31542969 114.86669922 C315.35910558 116.7312217 317.42772982 118.5550446 319.51464844 120.37060547 C330.56306265 130.01706724 340.96256499 140.118179 350.72167969 151.06201172 C352.09196134 152.52638996 353.4622641 153.99075146 354.83520508 155.45263672 C360.7065289 161.73854072 366.04939722 168.35316918 371.27392578 175.18164062 C372.74763888 177.09572802 374.24227221 178.9918515 375.74121094 180.88623047 C389.14878969 197.95213004 401.10726898 216.1375797 411.72167969 235.06201172 C412.17961914 235.86719238 412.63755859 236.67237305 413.109375 237.50195312 C463.9839939 327.15192366 481.84197845 432.3966722 456.265625 584.52294922 C454.82870768 589.72665434 453.29690398 594.89864292 451.72167969 600.06201172 C451.3986084 601.12178223 451.07553711 602.18155273 450.74267578 603.2734375 C437.20278627 647.02424644 416.86050056 688.46139666 390.72167969 726.06201172 C390.07271729 727.00028809 390.07271729 727.00028809 389.41064453 727.95751953 C379.93737789 741.60513763 369.55230192 754.47461139 358.72167969 767.06201172 C358.1196875 767.76583984 357.51769531 768.46966797 356.89746094 769.19482422 C345.11246527 782.83460128 332.70616702 796.58396003 318.90527344 808.21826172 C317.08207963 809.75770264 315.29142696 811.32218654 313.50683594 812.90576172 C304.24666702 821.09136753 294.64502344 828.69839195 284.72167969 836.06201172 C283.99577637 836.6035791 283.26987305 837.14514648 282.52197266 837.703125 C263.54216682 851.81953902 243.53150625 863.8372366 222.72167969 875.06201172 C221.36333008 875.79484375 221.36333008 875.79484375 219.97753906 876.54248047 C141.38085757 918.45288419 48.54035153 934.00838987 -124.43359375 908.15771484 C-162.35730907 896.43965093 -198.34008254 880.68398651 -232.27832031 860.06201172 C-233.04499023 859.60052734 -233.81166016 859.13904297 -234.6015625 858.66357422 C-261.17852427 842.63726561 -287.7877136 823.37808527 -309.35693359 800.98046875 C-311.17376773 799.16640488 -313.04940564 797.50845402 -315.00878906 795.85107422 C-319.36312948 792.06785238 -323.29793223 787.9774485 -327.21582031 783.74951172 C-327.91457275 783.00040527 -328.6133252 782.25129883 -329.33325195 781.47949219 C-331.32014957 779.34508352 -333.30067368 777.20499045 -335.27832031 775.06201172 C-335.76042969 774.54106934 -336.24253906 774.02012695 -336.73925781 773.48339844 C-366.47085616 741.27031964 -389.75473157 704.1532463 -409.27832031 665.06201172 C-409.71370117 664.19914551 -410.14908203 663.3362793 -410.59765625 662.44726562 C-453.11029123 577.81850442 -464.37544916 477.13737332 -432.12213135 318.1078186 C-412.47965114 258.82900961 -380.89318033 202.49432947 -338.47363281 156.46826172 C-337.26885819 155.14772583 -336.07178712 153.81939431 -334.91308594 152.45825195 C-329.6507219 146.29494157 -323.97350614 140.57107801 -318.24609375 134.84448242 C-316.54037434 133.13658116 -314.84283004 131.42083127 -313.14550781 129.70458984 C-307.22051172 123.74990584 -301.22087004 118.148528 -294.62158203 112.93774414 C-292.37832393 111.14206254 -290.26016656 109.26467859 -288.15332031 107.31201172 C-221.6915428 47.70927886 -130.49773399 12.37315811 0 0 Z M-46.27832031 64.06201172 C-47.46506348 64.23361816 -48.65180664 64.40522461 -49.87451172 64.58203125 C-87.94171406 70.24429357 -124.1960307 81.32616733 -159.27832031 97.06201172 C-160.09606934 97.42536621 -160.91381836 97.7887207 -161.75634766 98.16308594 C-193.4363767 112.31309249 -222.74152293 131.81015454 -249.27832031 154.06201172 C-249.89868164 154.57795898 -250.51904297 155.09390625 -251.15820312 155.62548828 C-259.28947025 162.3979609 -266.90398055 169.47183762 -274.27832031 177.06201172 C-277.00293837 179.80446688 -279.74833671 182.52381791 -282.51269531 185.22607422 C-288.68468138 191.28361865 -294.62782688 197.35041241 -299.98144531 204.15966797 C-301.62404467 206.23526546 -303.28329731 208.24606357 -305.01269531 210.24560547 C-320.97761744 228.92238449 -334.39132079 250.32938102 -346.09228516 271.88378906 C-347.1725599 273.86777655 -348.27674004 275.83560847 -349.39160156 277.80029297 C-374.62862122 322.83300896 -388.12372909 375.02888326 -393.27832031 426.06201172 C-393.3740332 426.96669189 -393.46974609 427.87137207 -393.56835938 428.8034668 C-394.61560788 440.17211877 -394.52210088 451.59265134 -394.52832031 462.99951172 C-394.52899506 464.11183167 -394.5296698 465.22415161 -394.53036499 466.37017822 C-394.51329188 484.12333915 -393.90264645 501.47696019 -391.27832031 519.06201172 C-391.11203125 520.19509766 -390.94574219 521.32818359 -390.77441406 522.49560547 C-385.17672664 559.35741378 -374.83482742 595.1601559 -359.27832031 629.06201172 C-358.6337085 630.4904541 -358.6337085 630.4904541 -357.97607422 631.94775391 C-340.9558764 669.49320279 -317.88170525 704.0893147 -289.82128906 734.30029297 C-287.81660957 736.477418 -285.87706831 738.6791394 -283.96582031 740.93701172 C-276.13537102 749.95905112 -267.40877769 758.37059382 -258.27832031 766.06201172 C-257.26661201 766.94725648 -256.25632897 767.8341314 -255.24707031 768.72216797 C-182.23115855 832.66105123 -85.97257498 867.40118196 34.28417969 866.31201172 C122.82707144 860.15260376 209.32984178 825.56032938 275.13964844 765.39794922 C276.55651522 764.11612421 277.97983895 762.84087458 279.4309082 761.59790039 C285.32339178 756.5426247 290.80781906 751.12432571 296.28417969 745.62451172 C297.19103516 744.72152344 298.09789062 743.81853516 299.03222656 742.88818359 C304.13773139 737.77527411 309.05889818 732.58135293 313.72167969 727.06201172 C314.26284424 726.42755127 314.80400879 725.79309082 315.36157227 725.1394043 C333.44382641 703.81813794 348.76976413 680.94333861 362.34765625 656.53125 C363.20372119 654.99282768 364.06426922 653.45688081 364.93164062 651.92480469 C395.06110154 598.62989095 410.22736386 534.91802378 411.72167969 474.06201172 C411.74359375 473.2732666 411.76550781 472.48452148 411.78808594 471.671875 C414.08131276 377.01893772 381.04500794 280.39762779 319.72167969 208.06201172 C318.49964844 206.58087891 318.49964844 206.58087891 317.25292969 205.06982422 C304.58040194 189.77009395 290.86027548 174.94646804 275.72167969 162.06201172 C274.67018093 161.14747144 273.61946653 160.23202894 272.56933594 159.31591797 C264.84052444 152.59549609 256.96879063 146.13943133 248.72167969 140.06201172 C247.7889624 139.37437744 247.7889624 139.37437744 246.83740234 138.67285156 C192.85995802 99.16248546 129.97404908 73.4567347 63.72167969 64.06201172 C62.69993652 63.91248047 61.67819336 63.76294922 60.62548828 63.60888672 C25.70724408 58.71917333 -11.40704914 58.91245792 -46.27832031 64.06201172 Z " fill="#000000" transform="translate(991.2783203125,585.93798828125)"/>
<path d="M0 0 C2.05619392 -0.00463558 4.112387 -0.00966122 6.1685791 -0.01504517 C11.7311435 -0.02810228 17.29369586 -0.03460131 22.85627317 -0.03905582 C26.3415375 -0.04199815 29.82679861 -0.04610514 33.31206131 -0.05056 C44.24547381 -0.064219 55.17887889 -0.07389275 66.11229932 -0.07776189 C78.67917899 -0.08223505 91.24594949 -0.09975524 103.812796 -0.12876248 C113.56188752 -0.15047447 123.31094855 -0.16047126 133.06006396 -0.16180301 C138.86604756 -0.16284449 144.67192833 -0.16861064 150.4778862 -0.18662262 C155.94944308 -0.20326817 161.42082163 -0.20518003 166.89239502 -0.19648361 C168.88315946 -0.1957219 170.87393416 -0.1999392 172.86467361 -0.20994186 C189.80647152 -0.2899679 206.93289034 0.86870589 223.24853516 5.78613281 C224.52881592 6.16463379 224.52881592 6.16463379 225.83496094 6.55078125 C261.00807311 17.46008877 291.20500866 43.11492196 308.75244141 75.36425781 C318.60674879 94.91637219 324.78710205 116.40381342 324.76397705 138.3853302 C324.76843373 139.72917228 324.76843373 139.72917228 324.77298045 141.10016268 C324.78161224 144.0850953 324.78317103 147.06998756 324.78466797 150.05493164 C324.78930022 152.20259689 324.79432543 154.35026132 324.79971313 156.4979248 C324.81280389 162.3229209 324.81927614 168.14790548 324.82372379 173.97291398 C324.8266612 177.61945832 324.83076736 181.26599957 324.83522797 184.91254234 C324.84889703 196.34252145 324.85856536 207.77249342 324.86242986 219.20248014 C324.86690277 232.35690309 324.88441758 245.51122174 324.91343045 258.665613 C324.93512249 268.85792112 324.94513821 279.05020006 324.94647098 289.242531 C324.94751405 295.31788983 324.95331473 301.39315054 324.97129059 307.46848488 C324.98790072 313.19361317 324.98986463 318.91857094 324.98115158 324.6437149 C324.98038796 326.73045754 324.98463335 328.81720983 324.99460983 330.90392876 C325.16382143 368.54302033 314.54996639 402.47404077 289.62353516 431.16113281 C289.09115234 431.8146875 288.55876953 432.46824219 288.01025391 433.14160156 C284.29900862 437.67312209 280.11915483 441.42019297 275.62353516 445.16113281 C274.93001953 445.76570313 274.23650391 446.37027344 273.52197266 446.99316406 C244.93714499 471.10854273 210.6428288 479.48512215 174.04858398 479.43579102 C171.9000328 479.44014623 169.75148316 479.44533206 167.60293579 479.45127869 C161.80306959 479.46459457 156.00326885 479.46525552 150.20339036 479.46271539 C145.34317149 479.46164037 140.48296558 479.4665427 135.62274951 479.47132081 C124.14505543 479.48239095 112.66739409 479.48286783 101.18969727 479.47680664 C89.39273937 479.4707721 77.5959009 479.48307048 65.79896337 479.50437671 C55.63200623 479.52205638 45.46508688 479.52798396 35.29811496 479.52473897 C29.24297407 479.52293568 23.18791833 479.52546593 17.13279152 479.53945351 C11.43219627 479.55213084 5.73178556 479.5499951 0.03119278 479.53704262 C-2.04587558 479.53469848 -4.12295733 479.53733257 -6.2000103 479.54566574 C-39.29676286 479.66874354 -70.8520071 471.9242838 -97.37646484 451.16113281 C-98.30072266 450.45601562 -99.22498047 449.75089844 -100.17724609 449.02441406 C-129.9667112 425.55520322 -148.7427671 391.57097876 -153.66279221 353.97307301 C-154.68843835 344.30307271 -154.53244709 334.60377786 -154.53759766 324.89233398 C-154.54223332 322.84761466 -154.54725898 320.8028962 -154.55264282 318.75817871 C-154.56569989 313.22653792 -154.57219907 307.69490923 -154.57665348 302.16325545 C-154.57959609 298.69674441 -154.58370315 295.23023659 -154.58815765 291.76372719 C-154.60181724 280.88744377 -154.61149045 270.01116782 -154.61535954 259.13487643 C-154.61983149 246.63705711 -154.63734578 234.13934764 -154.66636014 221.64156169 C-154.6880807 211.94425876 -154.69806939 202.2469865 -154.69940066 192.54965955 C-154.70044163 186.77550188 -154.70619632 181.00144767 -154.72422028 175.2273159 C-154.74088062 169.7844828 -154.74277077 164.34182893 -154.73408127 158.89897919 C-154.7333203 156.91992266 -154.73752655 154.94085576 -154.74753952 152.96182442 C-154.92930779 114.74237288 -145.71655204 79.55563396 -120.37646484 50.16113281 C-119.12736328 48.7109375 -119.12736328 48.7109375 -117.85302734 47.23144531 C-103.71211414 31.1529983 -86.68493494 20.03958111 -67.37646484 11.16113281 C-66.35552734 10.68804688 -65.33458984 10.21496094 -64.28271484 9.72753906 C-43.76727364 1.06246455 -21.91524914 0.01155653 0 0 Z M-84.12646484 82.34863281 C-101.7385821 103.48253896 -106.85470391 128.17492354 -106.76464844 154.97924805 C-106.76872237 157.03429441 -106.77406883 159.08933857 -106.78057861 161.14437866 C-106.79416115 166.68369971 -106.78899103 172.22285162 -106.77944136 177.76217532 C-106.77179647 183.58560024 -106.77890379 189.40901158 -106.78359985 195.23243713 C-106.78904385 205.00923232 -106.78190193 214.78595933 -106.76757812 224.56274414 C-106.75125886 235.83094897 -106.75654043 247.09899086 -106.77305734 258.36719173 C-106.78671641 268.07808137 -106.78857019 277.78892224 -106.78074133 287.49981838 C-106.77608847 293.28376975 -106.77537367 299.06764479 -106.7853508 304.85159111 C-106.79408264 310.29283947 -106.78788611 315.73387991 -106.77066803 321.17510605 C-106.76673596 323.15990289 -106.76778018 325.14471755 -106.77445602 327.12950706 C-106.85801134 354.51809094 -100.21070703 379.54395892 -81.37646484 400.16113281 C-80.67908203 400.93972656 -79.98169922 401.71832031 -79.26318359 402.52050781 C-59.77083903 423.18880735 -33.35486339 431.5046422 -5.63596916 432.34497833 C-0.71733206 432.44032098 4.20053986 432.43220965 9.11987305 432.41992188 C10.9850732 432.42264128 12.85027227 432.42620746 14.71546936 432.43054199 C19.71955292 432.43955493 24.72355276 432.4361684 29.72763753 432.42978382 C35.00156813 432.4246664 40.27549229 432.42943097 45.54942322 432.43255615 C54.39941678 432.43617893 63.24937679 432.43144096 72.09936523 432.421875 C82.28604255 432.41099037 92.47263978 432.41452297 102.65931517 432.42552781 C111.45566742 432.43464504 120.25199577 432.43586449 129.04835123 432.43065047 C134.28008645 432.42755547 139.51178421 432.42705267 144.74351692 432.43372345 C149.66441351 432.43956143 154.58520823 432.43538388 159.50609398 432.42393494 C161.29654904 432.42132261 163.0870129 432.42199356 164.87746429 432.42646027 C173.74574538 432.44652044 182.50309051 432.22923489 191.32615662 431.277771 C192.0421591 431.20134691 192.75816158 431.12492283 193.49586111 431.04618287 C219.17387869 427.96706715 241.37202108 413.11963839 257.72119141 393.66503906 C267.93675413 379.86588486 274.91917341 362.92435155 276.74017334 345.86375427 C276.82386413 345.0876771 276.90755493 344.31159993 276.99378181 343.51200527 C277.87843417 334.60921148 277.90462299 325.73250814 277.88232422 316.79418945 C277.88504302 314.93075932 277.88860888 313.06733027 277.89294434 311.2039032 C277.90196563 306.19969332 277.89856684 301.19556705 277.89218616 296.19135594 C277.88707167 290.91788738 277.89183266 285.6444253 277.8949585 280.37095642 C277.89858274 271.51918268 277.89384006 262.66744246 277.88427734 253.81567383 C277.87339917 243.62960529 277.87692002 233.44361689 277.88793015 223.2575503 C277.89705123 214.46205182 277.89826479 205.66657725 277.89305282 196.87107557 C277.88995903 191.63985251 277.88945142 186.40866691 277.89612579 181.17744637 C277.90196917 176.25491842 277.89777671 171.33249219 277.88633728 166.40997505 C277.88372747 164.61994087 277.88439137 162.8298979 277.88886261 161.0398674 C277.90942215 151.96110741 277.65979088 142.99146535 276.74017334 133.95433044 C276.66374926 133.19173701 276.58732518 132.42914358 276.50858521 131.64344126 C273.70533189 106.75444232 259.48970601 84.0457622 240.36962891 68.30566406 C229.22338183 60.06385362 216.164546 53.2357388 202.62353516 50.16113281 C201.62819323 49.9129063 201.62819323 49.9129063 200.61274338 49.65966511 C190.88140845 47.53209362 181.05737408 47.87265605 171.15185547 47.88647461 C169.08592546 47.88212171 167.01999707 47.87693664 164.95407104 47.87098694 C159.36709826 47.85764649 153.78019334 47.85701284 148.19320774 47.85955024 C143.51667643 47.86062352 138.84015865 47.85572735 134.16363025 47.85094482 C123.12291108 47.83986631 112.08222594 47.83940261 101.04150391 47.84545898 C89.68134788 47.85149516 78.32131581 47.83919294 66.96118093 47.81788892 C57.18160443 47.80022861 47.40206723 47.79427861 37.62247539 47.79752666 C31.7932172 47.79933292 25.96404741 47.79676938 20.13480377 47.78281212 C14.64848067 47.7701665 9.16234962 47.7722412 3.67602921 47.78522301 C1.6730734 47.7875739 -0.3298962 47.78490808 -2.33283615 47.77659988 C-34.321641 47.6535741 -62.78015519 57.865692 -84.12646484 82.34863281 Z " fill="#000000" transform="translate(914.37646484375,809.8388671875)"/>
<path d="M0 0 C24.44953805 20.89730647 39.10634648 49.37231421 42.17236328 81.39306641 C44.09701319 111.86968789 35.47442605 142.44503132 15.33642578 165.74462891 C12.69400942 168.70690008 9.94433743 171.55211623 7.17236328 174.39306641 C6.58068359 175.04662109 5.98900391 175.70017578 5.37939453 176.37353516 C-11.53803141 194.6276466 -40.07305904 206.48961826 -64.63769531 207.50976562 C-99.24640137 208.58112708 -129.59871877 199.98250876 -155.41748047 176.10791016 C-177.23786261 155.37375495 -190.86779628 127.0667435 -192.10888672 96.84619141 C-192.91315553 63.29388991 -182.09618558 33.41244649 -159.20849609 8.72900391 C-117.27389375 -34.65964152 -46.3255554 -38.16759596 0 0 Z M-132.58154297 43.42431641 C-145.61055747 60.6452747 -151.29932821 81.09943335 -148.54345703 102.61132812 C-146.15906733 116.29440093 -140.12038108 129.04475676 -130.82763672 139.39306641 C-130.09931641 140.21419922 -129.37099609 141.03533203 -128.62060547 141.88134766 C-116.40264119 154.88884113 -98.96590371 163.92539841 -80.95654297 164.63134766 C-59.40122259 165.06330636 -41.1710365 160.16772799 -24.82763672 145.39306641 C-24.11994141 144.76658203 -23.41224609 144.14009766 -22.68310547 143.49462891 C-17.29528369 138.44676529 -13.50102432 132.7674743 -9.82763672 126.39306641 C-9.36357422 125.62478516 -8.89951172 124.85650391 -8.42138672 124.06494141 C0.32561733 108.38433658 1.44463075 88.9842512 -2.79248047 71.79931641 C-6.06429997 61.03317828 -10.76592956 52.12618354 -17.82763672 43.39306641 C-18.34712891 42.69826172 -18.86662109 42.00345703 -19.40185547 41.28759766 C-31.4031527 26.14238377 -50.14807009 18.6526914 -68.82763672 16.39306641 C-93.33519375 14.35076999 -116.74633068 24.91089909 -132.58154297 43.42431641 Z " fill="#000000" transform="translate(1077.82763671875,955.60693359375)"/>
<path d="M0 0 C6.08267408 4.13731435 10.18189813 9.47175241 11.6015625 16.76953125 C12.60803084 27.28153388 11.24698406 34.35347636 5.4140625 43.01953125 C-0.49199531 48.79434333 -7.21268561 51.89524128 -15.4609375 52.08203125 C-24.08671834 51.97660504 -30.3483566 49.98981664 -36.7734375 44.14453125 C-43.02719806 37.28311784 -45.15112814 29.92886566 -44.7734375 20.72265625 C-43.76144991 12.753254 -40.58935522 6.8661028 -34.65234375 1.46484375 C-24.00849154 -6.54110401 -11.38252917 -6.41205799 0 0 Z " fill="#000000" transform="translate(1142.3984375,898.23046875)"/>
</svg>
