<?xml version="1.0" encoding="UTF-8"?>
<svg version="1.1" xmlns="http://www.w3.org/2000/svg" width="2000" height="2000">
<path d="M0 0 C98.11950061 -2.52176287 195.50181395 29.04841562 299.65820312 104.06201172 C300.72542267 104.95582483 301.79315756 105.84902287 302.86132812 106.74169922 C309.58750511 112.37762263 316.19957252 118.11970922 322.65820312 124.06201172 C323.25004395 124.60341797 323.84188477 125.14482422 324.45166016 125.70263672 C333.13362047 133.66019934 341.4624601 141.78805415 349.31298828 150.56835938 C350.60354244 152.00131951 351.9175323 153.41306745 353.23242188 154.82373047 C359.27838529 161.32527669 364.79417604 168.12951234 370.19433594 175.16552734 C371.6760704 177.08515932 373.1769991 178.98842366 374.68164062 180.89013672 C426.51082945 246.86705295 458.32878308 327.12041896 468.03320312 410.24951172 C468.11283295 410.92868652 468.19246277 411.60786133 468.27450562 412.30761719 C478.16520548 498.284962 462.73325059 586.02632229 425.65820312 664.06201172 C425.28405273 664.85414063 424.90990234 665.64626953 424.52441406 666.46240234 C414.60861498 687.29982967 402.82482932 707.12185961 389.65820312 726.06201172 C389.00924072 727.00028809 389.00924072 727.00028809 388.34716797 727.95751953 C378.87390133 741.60513763 368.48882536 754.47461139 357.65820312 767.06201172 C357.05621094 767.76583984 356.45421875 768.46966797 355.83398438 769.19482422 C344.04898871 782.83460128 331.64269046 796.58396003 317.84179688 808.21826172 C316.01860307 809.75770264 314.2279504 811.32218654 312.44335938 812.90576172 C303.18319046 821.09136753 293.58154688 828.69839195 283.65820312 836.06201172 C282.9322998 836.6035791 282.20639648 837.14514648 281.45849609 837.703125 C262.47869026 851.81953902 242.46802968 863.8372366 221.65820312 875.06201172 C220.29985352 875.79484375 220.29985352 875.79484375 218.9140625 876.54248047 C138.51341207 919.41482133 42.69576931 935.04021358 -123.89892578 908.74951172 C-129.74250701 906.9386696 -135.54661567 905.02155793 -141.34179688 903.06201172 C-142.39834473 902.71058105 -143.45489258 902.35915039 -144.54345703 901.99707031 C-185.39039338 888.31771103 -224.38266336 868.20116391 -259.34179688 843.06201172 C-260.10476074 842.51544922 -260.86772461 841.96888672 -261.65380859 841.40576172 C-270.86356456 834.78434439 -279.85982967 828.01878145 -288.42382812 820.57763672 C-291.24197021 818.1480738 -294.12092054 815.81972268 -297.02929688 813.49951172 C-301.65721383 809.73932919 -305.83409909 805.67244363 -309.99804688 801.40966797 C-312.7098702 798.69332494 -315.565541 796.2027999 -318.47460938 793.70263672 C-323.50090486 789.28622646 -327.97389502 784.4150345 -332.33398438 779.35107422 C-334.28500959 777.12675364 -336.28260638 774.95111482 -338.29541016 772.78271484 C-366.7950202 742.04112243 -389.66041385 706.46996426 -408.34179688 669.06201172 C-408.81069336 668.13211426 -409.27958984 667.2022168 -409.76269531 666.24414062 C-453.09597252 579.92150111 -465.78608836 479.18568578 -432.51855469 316.09472656 C-412.85348008 257.57598491 -381.46778786 201.96389668 -339.53710938 156.46826172 C-338.33233475 155.14772583 -337.13526368 153.81939431 -335.9765625 152.45825195 C-330.71419847 146.29494157 -325.0369827 140.57107801 -319.30957031 134.84448242 C-317.6038509 133.13658116 -315.90630661 131.42083127 -314.20898438 129.70458984 C-308.28398828 123.74990584 -302.2843466 118.148528 -295.68505859 112.93774414 C-293.44180049 111.14206254 -291.32364312 109.26467859 -289.21679688 107.31201172 C-222.77062323 47.72327236 -131.60121534 12.39187045 0 0 Z M-47.34179688 64.06201172 C-48.52854004 64.23361816 -49.7152832 64.40522461 -50.93798828 64.58203125 C-89.55077261 70.32544554 -127.08930154 81.25843241 -162.34179688 98.06201172 C-163.11249512 98.4292334 -163.88319336 98.79645508 -164.67724609 99.17480469 C-168.64123017 101.08199612 -172.56530247 103.05573456 -176.46582031 105.08935547 C-178.40868697 106.09669289 -180.36264155 107.07988682 -182.31835938 108.06201172 C-206.76446466 120.49110347 -229.3676317 136.46680968 -250.34179688 154.06201172 C-250.96747559 154.58327637 -251.5931543 155.10454102 -252.23779297 155.64160156 C-259.19666091 161.44946072 -265.87073477 167.36766638 -272.15820312 173.90576172 C-274.34179688 176.06201172 -274.34179688 176.06201172 -276.90820312 178.10498047 C-279.1442018 179.90311103 -280.8841527 181.67980857 -282.71679688 183.87451172 C-284.9556067 186.49932324 -287.23214181 188.98188092 -289.71679688 191.37451172 C-293.44823234 195.04777336 -296.69354345 199.05383545 -299.97070312 203.13232422 C-302.29701784 206.00668342 -304.68958682 208.81349768 -307.09179688 211.62451172 C-322.53498761 230.1563406 -335.29357926 250.64371456 -347.01074219 271.67431641 C-348.1614913 273.73857289 -349.32455516 275.79523997 -350.49023438 277.85107422 C-375.46194965 323.00401245 -389.35707613 374.9297524 -394.34179688 426.06201172 C-394.43605957 426.96089111 -394.53032227 427.85977051 -394.62744141 428.78588867 C-395.67656905 440.1620733 -395.58557303 451.58455383 -395.59179688 462.99951172 C-395.59247162 464.11183167 -395.59314636 465.22415161 -395.59384155 466.37017822 C-395.57676844 484.12333915 -394.96612301 501.47696019 -392.34179688 519.06201172 C-392.17550781 520.19509766 -392.00921875 521.32818359 -391.83789062 522.49560547 C-386.2402032 559.35741378 -375.89830398 595.1601559 -360.34179688 629.06201172 C-359.69718506 630.4904541 -359.69718506 630.4904541 -359.03955078 631.94775391 C-342.01935297 669.49320279 -318.94518182 704.0893147 -290.88476562 734.30029297 C-288.88008614 736.477418 -286.94054488 738.6791394 -285.02929688 740.93701172 C-277.19884759 749.95905112 -268.47225426 758.37059382 -259.34179688 766.06201172 C-258.33008857 766.94725648 -257.31980553 767.8341314 -256.31054688 768.72216797 C-183.56819659 832.42149775 -87.44116592 867.4097405 34.65716553 866.18182373 C122.59099054 860.1449749 208.8065937 825.06646026 274.07617188 765.39794922 C275.49493222 764.11441112 276.92000185 762.83732508 278.37182617 761.59130859 C284.2021601 756.58273908 289.66017127 751.24362466 295.09570312 745.81201172 C295.98580078 744.93416016 296.87589844 744.05630859 297.79296875 743.15185547 C303.1078866 737.84858463 308.01610172 732.37760856 312.68847656 726.49926758 C314.54023724 724.20797768 316.46812081 722.03404053 318.47070312 719.87451172 C335.42175195 700.89200124 349.20797637 678.57413217 361.40771484 656.33691406 C362.51885547 654.31551453 363.6489755 652.30655951 364.78710938 650.30029297 C414.92015867 559.85824646 422.43790286 448.71763445 394.46875 350.28833008 C379.26883305 298.61928193 353.64250932 249.1357364 318.65820312 208.06201172 C317.74910251 206.97888519 316.84026315 205.89553934 315.93164062 204.81201172 C303.17897084 189.68888583 289.7263128 174.91118744 274.65820312 162.06201172 C273.69914062 161.21380859 272.74007812 160.36560547 271.75195312 159.49169922 C250.04903078 140.38869106 225.98149633 123.97178082 200.65820312 110.06201172 C199.78502441 109.58022461 198.9118457 109.0984375 198.01220703 108.60205078 C162.81524394 89.32617967 124.95937648 75.9881046 85.65820312 68.06201172 C84.65611816 67.85640625 83.6540332 67.65080078 82.62158203 67.43896484 C75.99385322 66.10465848 69.35141268 65.01112267 62.65820312 64.06201172 C61.63645996 63.91248047 60.6147168 63.76294922 59.56201172 63.60888672 C24.64376752 58.71917333 -12.4705257 58.91245792 -47.34179688 64.06201172 Z " fill="#000000" transform="translate(992.341796875,535.93798828125)"/>
<path d="M0 0 C23.13493507 21.75512467 30.03710861 55.29088279 31.4880929 85.8845365 C31.65167381 91.49969208 31.626836 97.11431061 31.60205078 102.73120117 C31.6014847 104.56649265 31.60180705 106.40178458 31.60293579 108.23707581 C31.60350263 113.15319034 31.59185842 118.06920452 31.57778788 122.98529601 C31.5651673 128.14752535 31.56410119 133.30975774 31.56173706 138.47200012 C31.55555523 148.21786342 31.53918969 157.96368111 31.51903808 167.70952445 C31.49236412 180.89998152 31.48167976 194.09045132 31.47003365 207.28092861 C31.4513062 228.02065315 31.41143874 248.76028149 31.375 269.5 C2.005 269.5 -27.365 269.5 -57.625 269.5 C-57.66238281 257.95386719 -57.69976563 246.40773438 -57.73828125 234.51171875 C-57.76857925 227.16991016 -57.79961956 219.82811695 -57.83398438 212.48632812 C-57.88831846 200.84905438 -57.93973753 189.21182327 -57.97143555 177.57446289 C-57.99454261 169.09625841 -58.02808011 160.61816737 -58.07370156 152.14005309 C-58.09746397 147.65862097 -58.11630314 143.1773 -58.12261391 138.6958065 C-56.93597267 100.43499006 -56.93597267 100.43499006 -72.875 66.9375 C-82.6852963 58.2420101 -93.9447255 55.80879556 -106.9453125 56.15625 C-120.20881998 57.39530378 -132.67472619 61.18612835 -141.5 71.75 C-157.33315669 94.09823551 -154.9451233 123.17213294 -155.02971697 149.22024202 C-155.04552721 153.46029272 -155.07225857 157.70027553 -155.0977478 161.9402771 C-155.14422312 169.94011875 -155.18111666 177.93997363 -155.21442068 185.93987978 C-155.26007745 196.77079071 -155.32083423 207.60161682 -155.38066864 218.43245697 C-155.47431675 235.45492842 -155.54804808 252.4774259 -155.625 269.5 C-184.995 269.5 -214.365 269.5 -244.625 269.5 C-244.625 175.12 -244.625 80.74 -244.625 -16.5 C-216.245 -16.5 -187.865 -16.5 -158.625 -16.5 C-158.13 1.32 -158.13 1.32 -157.625 19.5 C-154.325 15.21 -151.025 10.92 -147.625 6.5 C-131.68524719 -11.54500319 -107.22823624 -21.42472801 -83.546875 -23.28125 C-54.12804518 -24.91964511 -22.67444504 -20.25296669 0 0 Z " fill="#000000" transform="translate(1181.625,896.5)"/>
<path d="M0 0 C29.37 0 58.74 0 89 0 C89 94.38 89 188.76 89 286 C59.63 286 30.26 286 0 286 C0 191.62 0 97.24 0 0 Z " fill="#000000" transform="translate(793,880)"/>
<path d="M0 0 C9.51266734 7.86810451 15.84661327 19.19053603 18.4921875 31.21875 C19.99484051 49.0433236 16.76370645 62.41863497 5.6015625 76.625 C-2.4020256 85.54502948 -14.59056174 91.7643031 -26.515625 93.10546875 C-42.75361923 93.7202231 -56.20281506 89.80922447 -68.76171875 79.33984375 C-78.33270366 70.35001922 -83.9144187 58.55740655 -84.74609375 45.46875 C-85.13187503 30.70653379 -82.07584793 18.03066668 -72.25 6.58984375 C-52.65486246 -14.01883539 -23.32783044 -16.56930013 0 0 Z " fill="#000000" transform="translate(870.5078125,749.78125)"/>
</svg>
